<svg width="1440" height="552" viewBox="0 0 1440 552" fill="none" xmlns="http://www.w3.org/2000/svg">
<rect width="1440" height="552" fill="#FAFAFA"/>
<path d="M527.9 116.54C526.1 116.54 524.42 116.204 522.86 115.532C521.324 114.836 519.968 113.876 518.792 112.652C517.64 111.428 516.74 110 516.092 108.368C515.444 106.712 515.12 104.936 515.12 103.04C515.12 101.144 515.444 99.38 516.092 97.748C516.74 96.116 517.64 94.7 518.792 93.5C519.968 92.276 521.324 91.328 522.86 90.656C524.42 89.96 526.1 89.612 527.9 89.612C530.06 89.612 532.028 90.056 533.804 90.944C535.604 91.832 537.092 93.08 538.268 94.688C539.468 96.296 540.224 98.168 540.536 100.304H536.324C536.084 98.912 535.568 97.676 534.776 96.596C533.984 95.516 533 94.676 531.824 94.076C530.672 93.476 529.376 93.176 527.936 93.176C526.664 93.176 525.488 93.416 524.408 93.896C523.352 94.376 522.428 95.06 521.636 95.948C520.868 96.836 520.268 97.88 519.836 99.08C519.428 100.28 519.224 101.6 519.224 103.04C519.224 104.48 519.428 105.812 519.836 107.036C520.268 108.236 520.868 109.28 521.636 110.168C522.428 111.056 523.352 111.752 524.408 112.256C525.488 112.736 526.664 112.976 527.936 112.976C529.376 112.976 530.684 112.676 531.86 112.076C533.036 111.452 534.008 110.6 534.776 109.52C535.568 108.44 536.084 107.204 536.324 105.812H540.536C540.224 107.948 539.468 109.82 538.268 111.428C537.092 113.036 535.604 114.296 533.804 115.208C532.028 116.096 530.06 116.54 527.9 116.54ZM551.356 116.36C550.012 116.36 548.764 116.12 547.612 115.64C546.484 115.136 545.5 114.44 544.66 113.552C543.82 112.64 543.16 111.584 542.68 110.384C542.224 109.184 541.996 107.876 541.996 106.46C541.996 105.044 542.224 103.736 542.68 102.536C543.16 101.336 543.82 100.292 544.66 99.404C545.5 98.492 546.484 97.796 547.612 97.316C548.764 96.812 550.012 96.56 551.356 96.56C552.724 96.56 553.972 96.812 555.1 97.316C556.252 97.796 557.236 98.492 558.052 99.404C558.892 100.292 559.54 101.336 559.996 102.536C560.476 103.736 560.716 105.044 560.716 106.46C560.716 107.876 560.476 109.184 559.996 110.384C559.54 111.584 558.892 112.64 558.052 113.552C557.236 114.44 556.252 115.136 555.1 115.64C553.972 116.12 552.724 116.36 551.356 116.36ZM551.356 113.156C552.412 113.156 553.36 112.892 554.2 112.364C555.064 111.812 555.736 111.032 556.216 110.024C556.72 109.016 556.972 107.828 556.972 106.46C556.972 105.068 556.72 103.88 556.216 102.896C555.736 101.888 555.064 101.12 554.2 100.592C553.36 100.064 552.412 99.8 551.356 99.8C550.324 99.8 549.376 100.064 548.512 100.592C547.672 101.12 547 101.888 546.496 102.896C546.016 103.88 545.776 105.068 545.776 106.46C545.776 107.828 546.016 109.016 546.496 110.024C547 111.032 547.672 111.812 548.512 112.364C549.376 112.892 550.324 113.156 551.356 113.156ZM567.058 116H563.422V96.92H566.806V100.088C567.454 98.984 568.282 98.12 569.29 97.496C570.298 96.872 571.462 96.56 572.782 96.56C574.174 96.56 575.374 96.908 576.382 97.604C577.414 98.276 578.146 99.248 578.578 100.52C579.25 99.296 580.126 98.336 581.206 97.64C582.286 96.92 583.558 96.56 585.022 96.56C586.99 96.56 588.55 97.184 589.702 98.432C590.878 99.656 591.466 101.396 591.466 103.652V116H587.83V104.804C587.83 103.196 587.482 101.96 586.786 101.096C586.09 100.208 585.082 99.764 583.762 99.764C582.946 99.764 582.19 99.992 581.494 100.448C580.822 100.88 580.282 101.492 579.874 102.284C579.466 103.076 579.262 104 579.262 105.056V116H575.626V104.804C575.626 103.196 575.278 101.96 574.582 101.096C573.91 100.208 572.902 99.764 571.558 99.764C570.718 99.764 569.95 99.992 569.254 100.448C568.582 100.88 568.042 101.492 567.634 102.284C567.25 103.076 567.058 104 567.058 105.056V116ZM613.545 106.46C613.545 108.38 613.197 110.084 612.501 111.572C611.805 113.06 610.821 114.236 609.549 115.1C608.301 115.94 606.825 116.36 605.121 116.36C603.825 116.36 602.649 116.048 601.593 115.424C600.537 114.8 599.661 113.912 598.965 112.76V122.948H595.329V96.92H598.713V100.412C599.385 99.188 600.285 98.24 601.413 97.568C602.541 96.896 603.777 96.56 605.121 96.56C606.825 96.56 608.301 96.992 609.549 97.856C610.821 98.696 611.805 99.86 612.501 101.348C613.197 102.836 613.545 104.54 613.545 106.46ZM609.765 106.46C609.765 104.324 609.249 102.68 608.217 101.528C607.209 100.352 605.925 99.764 604.365 99.764C603.357 99.764 602.445 100.028 601.629 100.556C600.813 101.084 600.165 101.84 599.685 102.824C599.205 103.808 598.965 105.02 598.965 106.46C598.965 107.852 599.205 109.052 599.685 110.06C600.165 111.044 600.813 111.8 601.629 112.328C602.445 112.856 603.357 113.12 604.365 113.12C605.925 113.12 607.209 112.544 608.217 111.392C609.249 110.24 609.765 108.596 609.765 106.46ZM627.787 116V113.048C627.187 114.104 626.371 114.92 625.339 115.496C624.307 116.072 623.083 116.36 621.667 116.36C619.699 116.36 618.115 115.844 616.915 114.812C615.715 113.756 615.115 112.352 615.115 110.6C615.115 108.728 615.847 107.312 617.311 106.352C618.799 105.392 620.959 104.912 623.791 104.912C624.343 104.912 624.883 104.924 625.411 104.948C625.939 104.972 626.587 105.032 627.355 105.128V103.724C627.355 102.38 627.007 101.336 626.311 100.592C625.615 99.824 624.631 99.44 623.359 99.44C622.039 99.44 620.983 99.824 620.191 100.592C619.423 101.336 619.015 102.368 618.967 103.688H615.655C615.703 102.248 616.051 101 616.699 99.944C617.371 98.864 618.271 98.036 619.399 97.46C620.551 96.86 621.871 96.56 623.359 96.56C625.711 96.56 627.535 97.196 628.831 98.468C630.151 99.716 630.811 101.48 630.811 103.76V116H627.787ZM618.571 110.492C618.571 111.476 618.919 112.268 619.615 112.868C620.311 113.468 621.235 113.768 622.387 113.768C623.923 113.768 625.135 113.336 626.023 112.472C626.911 111.584 627.355 110.408 627.355 108.944V107.396C626.659 107.324 626.047 107.276 625.519 107.252C624.991 107.204 624.487 107.18 624.007 107.18C622.183 107.18 620.815 107.456 619.903 108.008C619.015 108.536 618.571 109.364 618.571 110.492ZM638.308 105.236V116H634.672V96.92H638.056V100.088C638.704 99.032 639.544 98.18 640.576 97.532C641.632 96.884 642.82 96.56 644.14 96.56C646.108 96.56 647.68 97.172 648.856 98.396C650.056 99.62 650.656 101.372 650.656 103.652V116H647.02V104.876C647.02 103.244 646.672 101.984 645.976 101.096C645.28 100.208 644.248 99.764 642.88 99.764C642.04 99.764 641.272 99.992 640.576 100.448C639.88 100.88 639.328 101.504 638.92 102.32C638.512 103.136 638.308 104.108 638.308 105.236ZM658.121 116H654.485V96.92H658.121V116ZM658.913 92.492C658.913 93.164 658.661 93.74 658.157 94.22C657.677 94.676 657.053 94.904 656.285 94.904C655.493 94.904 654.845 94.676 654.341 94.22C653.861 93.74 653.621 93.164 653.621 92.492C653.621 91.772 653.861 91.196 654.341 90.764C654.845 90.308 655.493 90.08 656.285 90.08C657.053 90.08 657.677 90.308 658.157 90.764C658.661 91.196 658.913 91.772 658.913 92.492ZM670.016 116.36C668.168 116.36 666.548 115.952 665.156 115.136C663.788 114.296 662.72 113.12 661.952 111.608C661.184 110.096 660.8 108.344 660.8 106.352C660.8 104.456 661.196 102.776 661.988 101.312C662.78 99.848 663.86 98.696 665.228 97.856C666.596 96.992 668.156 96.56 669.908 96.56C671.348 96.56 672.632 96.836 673.76 97.388C674.912 97.916 675.884 98.672 676.676 99.656C677.492 100.616 678.08 101.756 678.44 103.076C678.8 104.372 678.896 105.8 678.728 107.36H662.924V104.948H674.876C674.804 103.172 674.312 101.792 673.4 100.808C672.512 99.8 671.324 99.296 669.836 99.296C668.756 99.296 667.808 99.584 666.992 100.16C666.2 100.712 665.576 101.516 665.12 102.572C664.688 103.604 664.472 104.864 664.472 106.352C664.472 107.84 664.688 109.124 665.12 110.204C665.552 111.26 666.176 112.076 666.992 112.652C667.808 113.228 668.792 113.516 669.944 113.516C671.312 113.516 672.44 113.168 673.328 112.472C674.24 111.776 674.84 110.804 675.128 109.556H678.728C678.272 111.668 677.264 113.336 675.704 114.56C674.168 115.76 672.272 116.36 670.016 116.36ZM696.714 110.312C696.714 112.184 696.018 113.66 694.626 114.74C693.234 115.82 691.266 116.36 688.722 116.36C686.226 116.36 684.246 115.772 682.782 114.596C681.342 113.42 680.526 111.812 680.334 109.772H683.826C683.874 110.972 684.342 111.92 685.23 112.616C686.142 113.288 687.33 113.624 688.794 113.624C690.066 113.624 691.086 113.396 691.854 112.94C692.646 112.484 693.042 111.812 693.042 110.924C693.042 110.132 692.778 109.532 692.25 109.124C691.746 108.716 690.894 108.404 689.694 108.188L686.598 107.612C684.846 107.276 683.49 106.664 682.53 105.776C681.57 104.864 681.09 103.688 681.09 102.248C681.09 101.12 681.39 100.136 681.99 99.296C682.614 98.432 683.478 97.76 684.582 97.28C685.686 96.8 686.97 96.56 688.434 96.56C689.97 96.56 691.314 96.824 692.466 97.352C693.618 97.856 694.542 98.588 695.238 99.548C695.934 100.484 696.33 101.612 696.426 102.932H692.934C692.814 101.804 692.358 100.916 691.566 100.268C690.774 99.62 689.742 99.296 688.47 99.296C687.318 99.296 686.382 99.536 685.662 100.016C684.966 100.472 684.618 101.108 684.618 101.924C684.618 102.692 684.87 103.28 685.374 103.688C685.902 104.072 686.742 104.384 687.894 104.624L691.134 105.236C693.03 105.572 694.434 106.16 695.346 107C696.258 107.84 696.714 108.944 696.714 110.312ZM726.188 116L720.716 95.732L715.208 116H711.14L704.408 90.152H708.296L713.264 110.06L718.7 90.152H722.804L728.168 110.096L733.136 90.152H737.024L730.292 116H726.188ZM745.505 116.36C743.657 116.36 742.037 115.952 740.645 115.136C739.277 114.296 738.209 113.12 737.441 111.608C736.673 110.096 736.289 108.344 736.289 106.352C736.289 104.456 736.685 102.776 737.477 101.312C738.269 99.848 739.349 98.696 740.717 97.856C742.085 96.992 743.645 96.56 745.397 96.56C746.837 96.56 748.121 96.836 749.249 97.388C750.401 97.916 751.373 98.672 752.165 99.656C752.981 100.616 753.569 101.756 753.929 103.076C754.289 104.372 754.385 105.8 754.217 107.36H738.413V104.948H750.365C750.293 103.172 749.801 101.792 748.889 100.808C748.001 99.8 746.813 99.296 745.325 99.296C744.245 99.296 743.297 99.584 742.481 100.16C741.689 100.712 741.065 101.516 740.609 102.572C740.177 103.604 739.961 104.864 739.961 106.352C739.961 107.84 740.177 109.124 740.609 110.204C741.041 111.26 741.665 112.076 742.481 112.652C743.297 113.228 744.281 113.516 745.433 113.516C746.801 113.516 747.929 113.168 748.817 112.472C749.729 111.776 750.329 110.804 750.617 109.556H754.217C753.761 111.668 752.753 113.336 751.193 114.56C749.657 115.76 747.761 116.36 745.505 116.36ZM783.586 116L778.114 95.732L772.606 116H768.538L761.806 90.152H765.694L770.662 110.06L776.098 90.152H780.202L785.566 110.096L790.534 90.152H794.422L787.69 116H783.586ZM803.047 116.36C801.703 116.36 800.455 116.12 799.303 115.64C798.175 115.136 797.191 114.44 796.351 113.552C795.511 112.64 794.851 111.584 794.371 110.384C793.915 109.184 793.687 107.876 793.687 106.46C793.687 105.044 793.915 103.736 794.371 102.536C794.851 101.336 795.511 100.292 796.351 99.404C797.191 98.492 798.175 97.796 799.303 97.316C800.455 96.812 801.703 96.56 803.047 96.56C804.415 96.56 805.663 96.812 806.791 97.316C807.943 97.796 808.927 98.492 809.743 99.404C810.583 100.292 811.231 101.336 811.687 102.536C812.167 103.736 812.407 105.044 812.407 106.46C812.407 107.876 812.167 109.184 811.687 110.384C811.231 111.584 810.583 112.64 809.743 113.552C808.927 114.44 807.943 115.136 806.791 115.64C805.663 116.12 804.415 116.36 803.047 116.36ZM803.047 113.156C804.103 113.156 805.051 112.892 805.891 112.364C806.755 111.812 807.427 111.032 807.907 110.024C808.411 109.016 808.663 107.828 808.663 106.46C808.663 105.068 808.411 103.88 807.907 102.896C807.427 101.888 806.755 101.12 805.891 100.592C805.051 100.064 804.103 99.8 803.047 99.8C802.015 99.8 801.067 100.064 800.203 100.592C799.363 101.12 798.691 101.888 798.187 102.896C797.707 103.88 797.467 105.068 797.467 106.46C797.467 107.828 797.707 109.016 798.187 110.024C798.691 111.032 799.363 111.812 800.203 112.364C801.067 112.892 802.015 113.156 803.047 113.156ZM818.75 106.244V116H815.114V96.92H818.498V100.952C819.17 99.632 820.166 98.588 821.486 97.82C822.83 97.052 824.282 96.668 825.842 96.668V100.448C824.474 100.376 823.25 100.532 822.17 100.916C821.114 101.3 820.274 101.936 819.65 102.824C819.05 103.688 818.75 104.828 818.75 106.244ZM831.355 116H827.719V90.152H831.355V105.452L839.527 96.92H843.811L834.991 106.172L844.639 116H839.959L831.355 106.964V116ZM872.699 116L867.227 95.732L861.719 116H857.651L850.919 90.152H854.807L859.775 110.06L865.211 90.152H869.315L874.679 110.096L879.647 90.152H883.535L876.803 116H872.699ZM889.422 116H885.786V96.92H889.422V116ZM890.214 92.492C890.214 93.164 889.962 93.74 889.458 94.22C888.978 94.676 888.354 94.904 887.586 94.904C886.794 94.904 886.146 94.676 885.642 94.22C885.162 93.74 884.922 93.164 884.922 92.492C884.922 91.772 885.162 91.196 885.642 90.764C886.146 90.308 886.794 90.08 887.586 90.08C888.354 90.08 888.978 90.308 889.458 90.764C889.962 91.196 890.214 91.772 890.214 92.492ZM904.233 112.472V115.676C903.681 115.94 903.141 116.12 902.613 116.216C902.109 116.312 901.569 116.36 900.993 116.36C899.817 116.36 898.773 116.144 897.861 115.712C896.973 115.28 896.277 114.608 895.773 113.696C895.269 112.784 895.017 111.632 895.017 110.24V100.016H890.805V96.92H895.017V91.268H898.653V96.92H904.413V100.016H898.653V109.412C898.653 110.732 898.941 111.656 899.517 112.184C900.117 112.712 900.897 112.976 901.857 112.976C902.289 112.976 902.697 112.94 903.081 112.868C903.489 112.772 903.873 112.64 904.233 112.472ZM910.519 105.236V116H906.883V90.152H910.519V99.98C911.143 98.948 911.935 98.12 912.895 97.496C913.879 96.872 915.031 96.56 916.351 96.56C918.319 96.56 919.891 97.172 921.067 98.396C922.267 99.62 922.867 101.372 922.867 103.652V116H919.231V104.876C919.231 103.244 918.883 101.984 918.187 101.096C917.491 100.208 916.459 99.764 915.091 99.764C914.251 99.764 913.483 99.992 912.787 100.448C912.091 100.88 911.539 101.504 911.131 102.32C910.723 103.136 910.519 104.108 910.519 105.236Z" fill="black"/>
<g clip-path="url(#clip0_1_911)">
<path d="M141.073 230.079C129.475 230.079 120.072 239.481 120.072 251.079C120.072 262.678 129.475 272.079 141.073 272.079C152.672 272.079 162.073 262.678 162.073 251.079C162.073 239.482 152.672 230.08 141.072 230.08L141.073 230.079ZM150.703 260.367C150.327 260.984 149.52 261.18 148.903 260.801C143.972 257.789 137.765 257.107 130.455 258.777C129.751 258.938 129.048 258.497 128.888 257.792C128.727 257.087 129.166 256.385 129.872 256.225C137.872 254.397 144.734 255.184 150.269 258.567C150.886 258.945 151.082 259.75 150.703 260.367ZM153.274 254.649C152.8 255.42 151.792 255.663 151.022 255.189C145.377 251.719 136.772 250.714 130.095 252.741C129.229 253.003 128.315 252.515 128.052 251.65C127.791 250.784 128.28 249.872 129.144 249.608C136.771 247.294 146.252 248.415 152.735 252.399C153.504 252.872 153.748 253.881 153.274 254.649V254.649ZM153.494 248.695C146.726 244.675 135.559 244.305 129.097 246.266C128.059 246.581 126.962 245.995 126.648 244.958C126.333 243.919 126.918 242.823 127.957 242.507C135.375 240.255 147.707 240.691 155.499 245.316C156.434 245.87 156.74 247.076 156.186 248.008C155.634 248.941 154.426 249.249 153.495 248.695H153.494ZM177.207 249.465C173.581 248.601 172.937 247.994 172.937 246.719C172.937 245.514 174.07 244.703 175.758 244.703C177.393 244.703 179.013 245.319 180.713 246.586C180.763 246.625 180.829 246.64 180.891 246.63C180.956 246.62 181.012 246.585 181.049 246.533L182.82 244.037C182.892 243.934 182.872 243.793 182.774 243.714C180.751 242.091 178.474 241.302 175.811 241.302C171.896 241.302 169.16 243.651 169.16 247.013C169.16 250.618 171.52 251.894 175.597 252.88C179.066 253.679 179.652 254.348 179.652 255.545C179.652 256.872 178.469 257.697 176.563 257.697C174.446 257.697 172.719 256.982 170.788 255.312C170.74 255.269 170.675 255.252 170.615 255.254C170.549 255.259 170.492 255.289 170.452 255.337L168.465 257.699C168.383 257.799 168.393 257.945 168.488 258.03C170.735 260.036 173.498 261.095 176.483 261.095C180.701 261.095 183.427 258.79 183.427 255.221C183.434 252.21 181.631 250.543 177.215 249.469L177.207 249.465ZM192.971 245.889C191.143 245.889 189.643 246.609 188.404 248.085V246.424C188.404 246.293 188.299 246.186 188.169 246.186H184.921C184.791 246.186 184.685 246.293 184.685 246.424V264.881C184.685 265.012 184.791 265.119 184.921 265.119H188.169C188.299 265.119 188.404 265.012 188.404 264.881V259.056C189.643 260.443 191.143 261.122 192.971 261.122C196.369 261.122 199.809 258.507 199.809 253.506C199.814 248.505 196.374 245.889 192.973 245.889L192.971 245.889ZM196.033 253.506C196.033 256.052 194.465 257.83 192.219 257.83C189.999 257.83 188.324 255.971 188.324 253.506C188.324 251.041 189.999 249.184 192.219 249.184C194.428 249.183 196.033 251.001 196.033 253.506V253.506ZM208.624 245.889C204.248 245.889 200.82 249.259 200.82 253.561C200.82 257.817 204.226 261.15 208.571 261.15C212.962 261.15 216.4 257.792 216.4 253.506C216.4 249.236 212.985 245.89 208.624 245.89V245.889ZM208.624 257.855C206.297 257.855 204.541 255.984 204.541 253.505C204.541 251.015 206.237 249.208 208.571 249.208C210.914 249.208 212.679 251.078 212.679 253.56C212.679 256.049 210.974 257.855 208.624 257.855ZM225.744 246.186H222.171V242.533C222.171 242.403 222.065 242.296 221.935 242.296H218.688C218.557 242.296 218.449 242.403 218.449 242.533V246.186H216.889C216.759 246.186 216.654 246.293 216.654 246.424V249.214C216.654 249.345 216.759 249.452 216.889 249.452H218.449V256.673C218.449 259.59 219.901 261.069 222.768 261.069C223.931 261.069 224.897 260.829 225.807 260.312C225.882 260.272 225.927 260.192 225.927 260.107V257.448C225.927 257.368 225.885 257.29 225.814 257.248C225.744 257.203 225.656 257.2 225.584 257.238C224.959 257.551 224.355 257.697 223.678 257.697C222.637 257.697 222.171 257.223 222.171 256.164V249.454H225.744C225.875 249.454 225.98 249.347 225.98 249.216V246.426C225.985 246.295 225.88 246.188 225.747 246.188L225.744 246.186ZM238.193 246.2V245.752C238.193 244.432 238.699 243.843 239.833 243.843C240.51 243.843 241.054 243.978 241.663 244.181C241.738 244.205 241.816 244.193 241.876 244.148C241.939 244.103 241.974 244.031 241.974 243.955V241.219C241.974 241.114 241.909 241.022 241.806 240.991C241.164 240.8 240.342 240.603 239.108 240.603C236.111 240.603 234.524 242.292 234.524 245.485V246.172H232.964C232.834 246.172 232.726 246.279 232.726 246.41V249.214C232.726 249.345 232.834 249.452 232.964 249.452H234.524V260.588C234.524 260.721 234.632 260.826 234.762 260.826H238.007C238.14 260.826 238.245 260.721 238.245 260.588V249.453H241.277L245.921 260.588C245.395 261.757 244.876 261.99 244.168 261.99C243.597 261.99 242.992 261.819 242.378 261.481C242.32 261.451 242.25 261.446 242.19 261.463C242.127 261.486 242.075 261.531 242.049 261.591L240.949 264.006C240.896 264.121 240.941 264.254 241.051 264.314C242.2 264.936 243.236 265.202 244.517 265.202C246.914 265.202 248.241 264.084 249.407 261.08L255.039 246.525C255.07 246.452 255.059 246.369 255.014 246.305C254.972 246.24 254.899 246.201 254.821 246.201H251.441C251.338 246.201 251.248 246.266 251.215 246.361L247.752 256.25L243.96 246.354C243.925 246.262 243.837 246.201 243.74 246.201H238.193V246.2ZM230.975 246.186H227.728C227.597 246.186 227.49 246.293 227.49 246.424V260.588C227.49 260.721 227.597 260.826 227.728 260.826H230.975C231.106 260.826 231.214 260.721 231.214 260.588V246.425C231.214 246.294 231.108 246.187 230.975 246.187V246.186ZM229.37 239.737C228.084 239.737 227.041 240.778 227.041 242.064C227.041 243.351 228.084 244.393 229.37 244.393C230.657 244.393 231.698 243.351 231.698 242.064C231.698 240.778 230.654 239.737 229.37 239.737ZM257.813 250.74C256.529 250.74 255.528 249.709 255.528 248.455C255.528 247.202 256.542 246.159 257.826 246.159C259.109 246.159 260.11 247.19 260.11 248.442C260.11 249.695 259.097 250.74 257.813 250.74ZM257.826 246.386C256.654 246.386 255.769 247.316 255.769 248.455C255.769 249.594 256.649 250.512 257.813 250.512C258.984 250.512 259.869 249.582 259.869 248.442C259.869 247.304 258.989 246.386 257.826 246.386ZM258.332 248.677L258.979 249.582H258.432L257.851 248.752H257.352V249.582H256.895V247.184H257.963C258.523 247.184 258.889 247.469 258.889 247.949C258.891 248.342 258.663 248.582 258.335 248.677H258.332ZM257.946 247.595H257.352V248.354H257.946C258.242 248.354 258.42 248.209 258.42 247.974C258.42 247.727 258.242 247.595 257.946 247.595Z" fill="#1ED760"/>
</g>
<path d="M454.238 252.65C454.238 257.973 450.073 261.896 444.963 261.896C439.852 261.896 435.688 257.973 435.688 252.65C435.688 247.289 439.852 243.404 444.963 243.404C450.073 243.404 454.238 247.289 454.238 252.65ZM450.177 252.65C450.177 249.324 447.764 247.048 444.963 247.048C442.161 247.048 439.748 249.324 439.748 252.65C439.748 255.943 442.161 258.253 444.963 258.253C447.764 258.253 450.177 255.939 450.177 252.65Z" fill="#EA4335"/>
<path d="M474.247 252.65C474.247 257.973 470.082 261.896 464.972 261.896C459.861 261.896 455.697 257.973 455.697 252.65C455.697 247.294 459.861 243.404 464.972 243.404C470.082 243.404 474.247 247.289 474.247 252.65ZM470.187 252.65C470.187 249.324 467.773 247.048 464.972 247.048C462.171 247.048 459.757 249.324 459.757 252.65C459.757 255.943 462.171 258.253 464.972 258.253C467.773 258.253 470.187 255.939 470.187 252.65Z" fill="#FBBC05"/>
<path d="M493.422 243.963V260.562C493.422 267.39 489.396 270.179 484.635 270.179C480.154 270.179 477.457 267.182 476.44 264.731L479.975 263.259C480.604 264.764 482.147 266.54 484.631 266.54C487.678 266.54 489.567 264.66 489.567 261.121V259.791H489.425C488.516 260.912 486.765 261.892 484.556 261.892C479.933 261.892 475.698 257.865 475.698 252.683C475.698 247.464 479.933 243.404 484.556 243.404C486.761 243.404 488.512 244.384 489.425 245.472H489.567V243.967H493.422V243.963ZM489.854 252.683C489.854 249.428 487.682 247.048 484.919 247.048C482.117 247.048 479.77 249.428 479.77 252.683C479.77 255.906 482.117 258.253 484.919 258.253C487.682 258.253 489.854 255.906 489.854 252.683Z" fill="#4285F4"/>
<path d="M499.779 234.234V261.329H495.819V234.234H499.779Z" fill="#34A853"/>
<path d="M515.211 255.693L518.363 257.794C517.346 259.299 514.895 261.892 510.659 261.892C505.407 261.892 501.484 257.832 501.484 252.646C501.484 247.148 505.44 243.4 510.205 243.4C515.003 243.4 517.35 247.219 518.117 249.282L518.538 250.332L506.178 255.451C507.124 257.306 508.596 258.253 510.659 258.253C512.727 258.253 514.161 257.236 515.211 255.693ZM505.511 252.367L513.773 248.936C513.319 247.781 511.952 246.977 510.343 246.977C508.279 246.977 505.407 248.798 505.511 252.367Z" fill="#EA4335"/>
<path d="M420.697 250.245V246.322H433.916C434.045 247.006 434.112 247.814 434.112 248.69C434.112 251.633 433.307 255.272 430.714 257.865C428.193 260.491 424.97 261.892 420.702 261.892C412.79 261.892 406.137 255.447 406.137 247.535C406.137 239.623 412.79 233.179 420.702 233.179C425.079 233.179 428.197 234.896 430.539 237.135L427.771 239.903C426.092 238.327 423.816 237.101 420.697 237.101C414.92 237.101 410.401 241.758 410.401 247.535C410.401 253.313 414.92 257.969 420.697 257.969C424.445 257.969 426.579 256.464 427.947 255.097C429.055 253.988 429.785 252.404 430.073 250.241L420.697 250.245Z" fill="#4285F4"/>
<g clip-path="url(#clip1_1_911)">
<path d="M669.143 255.855C669.448 256.662 669.869 257.353 670.407 257.926C670.946 258.5 671.584 258.939 672.321 259.243C673.058 259.547 673.86 259.699 674.726 259.699C675.569 259.699 676.359 259.541 677.096 259.225C677.834 258.909 678.477 258.465 679.027 257.891C679.577 257.318 680.005 256.633 680.309 255.837C680.613 255.041 680.765 254.152 680.765 253.169V238H684.452V262.579H680.801V260.296C679.981 261.162 679.016 261.83 677.904 262.298C676.792 262.766 675.592 263 674.305 263C672.994 263 671.771 262.772 670.636 262.315C669.5 261.859 668.517 261.209 667.686 260.367C666.855 259.524 666.2 258.512 665.72 257.329C665.24 256.147 665 254.831 665 253.379V238H668.687V253.169C668.687 254.152 668.839 255.047 669.143 255.855Z" fill="#010202"/>
<path d="M690.807 238V246.954C691.627 246.134 692.575 245.485 693.651 245.005C694.728 244.525 695.899 244.285 697.163 244.285C698.474 244.285 699.702 244.531 700.849 245.022C701.996 245.514 702.991 246.181 703.834 247.024C704.677 247.867 705.344 248.861 705.835 250.008C706.327 251.155 706.573 252.373 706.573 253.66C706.573 254.948 706.327 256.159 705.835 257.294C705.344 258.43 704.677 259.419 703.834 260.261C702.991 261.104 701.996 261.771 700.849 262.263C699.702 262.754 698.473 263 697.163 263C695.899 263 694.722 262.76 693.634 262.28C692.545 261.8 691.591 261.151 690.772 260.331V262.579H687.261V238H690.807ZM691.211 256.083C691.527 256.832 691.966 257.487 692.528 258.049C693.09 258.611 693.745 259.056 694.494 259.384C695.243 259.711 696.051 259.875 696.917 259.875C697.76 259.875 698.555 259.711 699.305 259.384C700.054 259.056 700.703 258.611 701.253 258.049C701.803 257.487 702.242 256.832 702.57 256.083C702.898 255.334 703.062 254.526 703.062 253.66C703.062 252.794 702.898 251.981 702.57 251.22C702.242 250.459 701.803 249.798 701.253 249.236C700.703 248.674 700.054 248.235 699.305 247.919C698.555 247.603 697.76 247.445 696.917 247.445C696.074 247.445 695.278 247.603 694.529 247.919C693.78 248.235 693.125 248.674 692.563 249.236C692.001 249.798 691.556 250.459 691.229 251.22C690.901 251.981 690.737 252.794 690.737 253.66C690.737 254.526 690.895 255.334 691.211 256.083Z" fill="#010202"/>
<path d="M708.574 250.044C709.042 248.92 709.686 247.931 710.505 247.077C711.324 246.222 712.296 245.549 713.419 245.058C714.543 244.566 715.76 244.32 717.071 244.32C718.358 244.32 719.552 244.554 720.652 245.023C721.753 245.491 722.701 246.14 723.496 246.971C724.292 247.802 724.913 248.785 725.357 249.921C725.802 251.056 726.025 252.291 726.025 253.625V254.784H711.453C711.57 255.51 711.804 256.182 712.155 256.803C712.506 257.423 712.945 257.961 713.472 258.418C713.999 258.874 714.595 259.231 715.263 259.489C715.93 259.746 716.638 259.875 717.387 259.875C719.517 259.875 721.238 258.997 722.549 257.242L725.112 259.138C724.222 260.331 723.122 261.268 721.811 261.947C720.5 262.625 719.026 262.965 717.387 262.965C716.053 262.965 714.806 262.731 713.648 262.263C712.489 261.795 711.482 261.139 710.628 260.296C709.774 259.454 709.101 258.465 708.609 257.329C708.117 256.194 707.872 254.959 707.872 253.625C707.871 252.361 708.106 251.167 708.574 250.044ZM713.507 248.657C712.512 249.488 711.851 250.594 711.523 251.975H722.443C722.139 250.594 721.489 249.488 720.494 248.657C719.5 247.826 718.335 247.41 717.001 247.41C715.666 247.41 714.502 247.826 713.507 248.657Z" fill="#010202"/>
<path d="M732.661 249.06C731.912 249.88 731.537 250.992 731.537 252.396V262.579H727.991V244.671H731.502V246.883C731.947 246.158 732.526 245.584 733.24 245.163C733.954 244.742 734.802 244.531 735.786 244.531H737.015V247.831H735.54C734.369 247.831 733.41 248.241 732.661 249.06Z" fill="#010202"/>
</g>
<path d="M1046.86 248.834V245.952H1043.28V241.472L1043.16 241.509L1039.8 242.538L1039.73 242.558V245.952H1034.43V244.061C1034.43 243.181 1034.62 242.507 1035.01 242.058C1035.4 241.614 1035.95 241.388 1036.65 241.388C1037.16 241.388 1037.68 241.507 1038.21 241.742L1038.34 241.801V238.766L1038.28 238.743C1037.78 238.566 1037.12 238.478 1036.29 238.478C1035.24 238.478 1034.3 238.705 1033.47 239.155C1032.64 239.606 1031.99 240.249 1031.53 241.067C1031.08 241.885 1030.85 242.829 1030.85 243.873V245.952H1028.36V248.834H1030.85V260.974H1034.43V248.834H1039.73V256.549C1039.73 259.726 1041.23 261.336 1044.19 261.336C1044.67 261.336 1045.18 261.279 1045.7 261.168C1046.24 261.053 1046.6 260.939 1046.81 260.817L1046.86 260.789V257.881L1046.71 257.977C1046.52 258.106 1046.28 258.212 1045.99 258.291C1045.71 258.371 1045.47 258.411 1045.29 258.411C1044.59 258.411 1044.08 258.224 1043.76 257.856C1043.44 257.484 1043.28 256.835 1043.28 255.926V248.834H1046.86ZM1020.37 258.411C1019.07 258.411 1018.05 257.981 1017.33 257.133C1016.6 256.28 1016.23 255.065 1016.23 253.521C1016.23 251.929 1016.6 250.682 1017.33 249.815C1018.05 248.953 1019.06 248.516 1020.34 248.516C1021.58 248.516 1022.57 248.933 1023.27 249.758C1023.99 250.586 1024.35 251.823 1024.35 253.434C1024.35 255.066 1024.01 256.319 1023.34 257.157C1022.67 257.989 1021.68 258.411 1020.37 258.411ZM1020.53 245.59C1018.05 245.59 1016.08 246.316 1014.68 247.748C1013.28 249.179 1012.57 251.16 1012.57 253.637C1012.57 255.989 1013.26 257.88 1014.63 259.259C1016 260.637 1017.86 261.336 1020.17 261.336C1022.57 261.336 1024.5 260.6 1025.9 259.149C1027.3 257.699 1028.01 255.736 1028.01 253.318C1028.01 250.929 1027.34 249.023 1026.03 247.654C1024.71 246.285 1022.86 245.59 1020.53 245.59ZM1006.8 245.59C1005.12 245.59 1003.72 246.021 1002.66 246.871C1001.59 247.726 1001.04 248.847 1001.04 250.204C1001.04 250.909 1001.16 251.535 1001.39 252.067C1001.62 252.6 1001.98 253.069 1002.46 253.463C1002.93 253.854 1003.67 254.263 1004.63 254.679C1005.45 255.015 1006.06 255.298 1006.44 255.522C1006.82 255.741 1007.09 255.961 1007.24 256.175C1007.39 256.385 1007.46 256.672 1007.46 257.027C1007.46 258.036 1006.7 258.527 1005.15 258.527C1004.57 258.527 1003.91 258.407 1003.19 258.169C1002.48 257.935 1001.8 257.593 1001.19 257.154L1001.04 257.047V260.491L1001.1 260.517C1001.6 260.75 1002.24 260.947 1002.99 261.102C1003.74 261.257 1004.43 261.336 1005.02 261.336C1006.85 261.336 1008.32 260.903 1009.39 260.049C1010.48 259.188 1011.02 258.04 1011.02 256.637C1011.02 255.624 1010.73 254.756 1010.15 254.055C1009.57 253.361 1008.57 252.723 1007.17 252.16C1006.06 251.713 1005.34 251.341 1005.05 251.057C1004.76 250.781 1004.62 250.392 1004.62 249.9C1004.62 249.463 1004.8 249.113 1005.16 248.829C1005.53 248.544 1006.04 248.4 1006.69 248.4C1007.28 248.4 1007.89 248.494 1008.5 248.678C1009.1 248.863 1009.64 249.11 1010.08 249.412L1010.23 249.512V246.245L1010.17 246.221C1009.76 246.045 1009.22 245.895 1008.56 245.773C1007.91 245.651 1007.32 245.59 1006.8 245.59ZM991.718 258.411C990.42 258.411 989.396 257.981 988.675 257.133C987.949 256.28 987.581 255.066 987.581 253.521C987.581 251.929 987.949 250.682 988.675 249.815C989.397 248.953 990.41 248.516 991.689 248.516C992.929 248.516 993.916 248.933 994.624 249.758C995.335 250.586 995.695 251.823 995.695 253.434C995.695 255.066 995.356 256.319 994.687 257.157C994.023 257.989 993.024 258.411 991.718 258.411ZM991.877 245.59C989.4 245.59 987.432 246.316 986.03 247.748C984.628 249.179 983.917 251.16 983.917 253.637C983.917 255.99 984.611 257.88 985.98 259.259C987.348 260.637 989.211 261.336 991.515 261.336C993.916 261.336 995.844 260.6 997.247 259.149C998.648 257.699 999.359 255.736 999.359 253.318C999.359 250.929 998.692 249.023 997.377 247.654C996.061 246.285 994.21 245.59 991.877 245.59ZM978.487 248.554V245.952H974.954V260.974H978.487V253.29C978.487 251.983 978.783 250.91 979.368 250.099C979.945 249.298 980.714 248.892 981.653 248.892C981.971 248.892 982.329 248.944 982.716 249.048C983.099 249.151 983.376 249.263 983.54 249.381L983.688 249.489V245.926L983.631 245.902C983.302 245.762 982.836 245.692 982.247 245.692C981.359 245.692 980.565 245.977 979.884 246.539C979.287 247.032 978.855 247.709 978.525 248.554H978.487ZM968.626 245.59C967.005 245.59 965.559 245.938 964.329 246.623C963.097 247.31 962.143 248.29 961.495 249.537C960.849 250.781 960.522 252.234 960.522 253.854C960.522 255.274 960.839 256.576 961.468 257.724C962.096 258.874 962.986 259.773 964.112 260.397C965.236 261.02 966.536 261.336 967.975 261.336C969.654 261.336 971.088 261.001 972.237 260.338L972.283 260.312V257.075L972.135 257.183C971.614 257.562 971.032 257.865 970.406 258.083C969.782 258.301 969.212 258.411 968.713 258.411C967.327 258.411 966.214 257.977 965.406 257.122C964.596 256.266 964.185 255.063 964.185 253.55C964.185 252.027 964.614 250.794 965.457 249.883C966.299 248.976 967.414 248.516 968.771 248.516C969.933 248.516 971.065 248.909 972.135 249.686L972.283 249.793V246.382L972.236 246.355C971.833 246.13 971.283 245.943 970.601 245.802C969.922 245.661 969.257 245.59 968.626 245.59ZM958.088 245.952H954.554V260.974H958.088V245.952ZM956.357 239.553C955.776 239.553 955.269 239.751 954.852 240.143C954.433 240.537 954.221 241.032 954.221 241.617C954.221 242.192 954.431 242.678 954.845 243.061C955.257 243.443 955.766 243.637 956.358 243.637C956.949 243.637 957.46 243.443 957.876 243.062C958.296 242.678 958.508 242.192 958.508 241.617C958.508 241.053 958.301 240.562 957.894 240.159C957.486 239.757 956.969 239.553 956.357 239.553ZM947.541 244.844V260.974H951.147V240.013H946.156L939.812 255.582L933.656 240.013H928.462V260.973H931.851V244.842H931.967L938.468 260.974H941.025L947.425 244.844H947.541Z" fill="#706D6E"/>
<path d="M899.622 249.631H883V233.009H899.622V249.631Z" fill="#F1511B"/>
<path d="M917.976 249.631H901.354V233.009H917.976V249.631Z" fill="#80CC28"/>
<path d="M899.622 267.991H883V251.369H899.622V267.991Z" fill="#00ADEF"/>
<path d="M917.976 267.991H901.354V251.369H917.976V267.991Z" fill="#FBBC09"/>
<path d="M1220.15 238.884C1220.13 238.707 1219.97 238.606 1219.85 238.606C1219.72 238.606 1217.22 238.555 1217.22 238.555C1217.22 238.555 1215.12 236.533 1214.92 236.305C1214.72 236.103 1214.31 236.154 1214.16 236.204C1214.16 236.204 1213.75 236.33 1213.1 236.533C1213 236.179 1212.82 235.749 1212.59 235.294C1211.86 233.878 1210.75 233.12 1209.43 233.12C1209.33 233.12 1209.25 233.12 1209.15 233.145C1209.1 233.095 1209.08 233.044 1209.03 233.019C1208.45 232.412 1207.71 232.109 1206.83 232.134C1205.13 232.185 1203.44 233.423 1202.05 235.597C1201.09 237.139 1200.36 239.061 1200.13 240.552C1198.18 241.159 1196.82 241.589 1196.77 241.589C1195.78 241.892 1195.76 241.917 1195.63 242.853C1195.58 243.561 1193 263.506 1193 263.506L1214.64 267.248L1224.02 264.922C1223.99 264.922 1220.18 239.061 1220.15 238.884ZM1212.01 236.887C1211.5 237.038 1210.95 237.215 1210.34 237.418C1210.34 236.558 1210.22 235.345 1209.84 234.333C1211.13 234.536 1211.76 236.002 1212.01 236.887ZM1209.2 237.746C1208.07 238.1 1206.83 238.479 1205.59 238.858C1205.94 237.519 1206.6 236.204 1207.41 235.319C1207.71 234.991 1208.14 234.637 1208.62 234.434C1209.13 235.42 1209.23 236.811 1209.2 237.746ZM1206.88 233.272C1207.28 233.272 1207.61 233.347 1207.89 233.55C1207.43 233.777 1206.98 234.131 1206.58 234.586C1205.49 235.749 1204.65 237.544 1204.33 239.288C1203.29 239.617 1202.28 239.92 1201.37 240.198C1201.97 237.443 1204.27 233.347 1206.88 233.272Z" fill="#95BF47"/>
<path d="M1219.85 238.606C1219.72 238.606 1217.22 238.555 1217.22 238.555C1217.22 238.555 1215.12 236.533 1214.92 236.305C1214.84 236.23 1214.74 236.179 1214.64 236.179V267.248L1224.02 264.922C1224.02 264.922 1220.2 239.061 1220.18 238.884C1220.13 238.707 1219.97 238.606 1219.85 238.606Z" fill="#5E8E3E"/>
<path d="M1209.43 243.434L1208.35 247.504C1208.35 247.504 1207.13 246.948 1205.69 247.049C1203.57 247.175 1203.57 248.515 1203.57 248.844C1203.69 250.664 1208.47 251.068 1208.75 255.341C1208.95 258.703 1206.98 261.003 1204.1 261.18C1200.66 261.357 1198.76 259.335 1198.76 259.335L1199.5 256.226C1199.5 256.226 1201.42 257.667 1202.94 257.565C1203.92 257.515 1204.3 256.681 1204.25 256.124C1204.1 253.748 1200.21 253.9 1199.95 249.981C1199.75 246.695 1201.9 243.383 1206.65 243.08C1208.5 242.954 1209.43 243.434 1209.43 243.434Z" fill="white"/>
<path d="M1236.71 252.105C1235.62 251.524 1235.07 251.018 1235.07 250.336C1235.07 249.476 1235.85 248.92 1237.06 248.92C1238.48 248.92 1239.74 249.501 1239.74 249.501L1240.73 246.468C1240.73 246.468 1239.82 245.76 1237.14 245.76C1233.4 245.76 1230.79 247.909 1230.79 250.917C1230.79 252.636 1232.01 253.925 1233.62 254.861C1234.94 255.594 1235.39 256.125 1235.39 256.908C1235.39 257.717 1234.74 258.375 1233.52 258.375C1231.73 258.375 1230.01 257.439 1230.01 257.439L1228.95 260.473C1228.95 260.473 1230.52 261.535 1233.17 261.535C1237.01 261.535 1239.79 259.639 1239.79 256.226C1239.77 254.38 1238.38 253.066 1236.71 252.105Z" fill="black"/>
<path d="M1252.03 245.71C1250.13 245.71 1248.64 246.62 1247.5 247.985L1247.45 247.96L1249.1 239.364H1244.82L1240.65 261.257H1244.93L1246.34 253.774C1246.9 250.943 1248.36 249.198 1249.73 249.198C1250.69 249.198 1251.07 249.856 1251.07 250.791C1251.07 251.372 1251.02 252.105 1250.89 252.687L1249.27 261.257H1253.55L1255.21 252.409C1255.39 251.473 1255.52 250.361 1255.52 249.603C1255.54 247.176 1254.28 245.71 1252.03 245.71Z" fill="black"/>
<path d="M1265.22 245.709C1260.07 245.709 1256.65 250.361 1256.65 255.543C1256.65 258.855 1258.7 261.534 1262.54 261.534C1267.6 261.534 1271.01 257.009 1271.01 251.701C1271.04 248.642 1269.24 245.709 1265.22 245.709ZM1263.13 258.273C1261.66 258.273 1261.05 257.035 1261.05 255.467C1261.05 253.015 1262.32 249.021 1264.64 249.021C1266.16 249.021 1266.67 250.335 1266.67 251.599C1266.67 254.229 1265.38 258.273 1263.13 258.273Z" fill="black"/>
<path d="M1281.99 245.709C1279.1 245.709 1277.46 248.263 1277.46 248.263H1277.41L1277.66 245.962H1273.87C1273.69 247.504 1273.34 249.88 1273.01 251.65L1270.03 267.324H1274.3L1275.49 260.978H1275.59C1275.59 260.978 1276.47 261.534 1278.09 261.534C1283.12 261.534 1286.41 256.377 1286.41 251.17C1286.41 248.288 1285.12 245.709 1281.99 245.709ZM1277.89 258.324C1276.78 258.324 1276.12 257.692 1276.12 257.692L1276.83 253.698C1277.33 251.018 1278.72 249.248 1280.22 249.248C1281.53 249.248 1281.94 250.462 1281.94 251.599C1281.94 254.38 1280.29 258.324 1277.89 258.324Z" fill="black"/>
<path d="M1292.53 239.567C1291.16 239.567 1290.07 240.654 1290.07 242.044C1290.07 243.308 1290.88 244.193 1292.1 244.193H1292.15C1293.49 244.193 1294.62 243.283 1294.65 241.715C1294.65 240.477 1293.82 239.567 1292.53 239.567Z" fill="black"/>
<path d="M1286.54 261.231H1290.81L1293.72 246.063H1289.42L1286.54 261.231Z" fill="black"/>
<path d="M1304.61 246.038H1301.63L1301.78 245.33C1302.03 243.864 1302.89 242.575 1304.33 242.575C1305.09 242.575 1305.7 242.802 1305.7 242.802L1306.53 239.44C1306.53 239.44 1305.8 239.061 1304.21 239.061C1302.69 239.061 1301.17 239.491 1300.01 240.477C1298.54 241.715 1297.86 243.51 1297.53 245.33L1297.41 246.038H1295.41L1294.78 249.274H1296.77L1294.5 261.257H1298.77L1301.05 249.274H1304L1304.61 246.038Z" fill="black"/>
<path d="M1314.92 246.063C1314.92 246.063 1312.24 252.813 1311.06 256.504H1311.01C1310.93 255.316 1309.94 246.063 1309.94 246.063H1305.44L1308.02 259.993C1308.07 260.296 1308.05 260.498 1307.92 260.7C1307.42 261.661 1306.58 262.596 1305.6 263.279C1304.79 263.86 1303.88 264.24 1303.17 264.492L1304.36 268.133C1305.22 267.956 1307.04 267.223 1308.55 265.807C1310.5 263.987 1312.32 261.155 1314.17 257.313L1319.4 246.063H1314.92Z" fill="black"/>
<path d="M159.625 401.572L160.64 401.363C161.535 401.125 161.774 401.005 161.774 399.215V385.161C161.774 383.371 161.505 383.221 160.64 383.012L159.625 382.804V381.968H175.798L176.096 387.906H175.171C174.425 386.265 173.948 385.4 173.5 384.743C172.546 383.371 171.919 383.251 169.86 383.251C168.338 383.251 167.592 383.43 167.145 383.55V391.158H167.95C170.039 391.158 170.517 390.92 170.875 390.263C171.292 389.517 171.531 388.95 171.8 387.996H172.695V395.694H171.8C171.531 394.769 171.292 394.172 170.875 393.307C170.517 392.561 170.129 392.412 167.95 392.412H167.145V398.141C167.145 400.796 167.234 401.095 170.129 401.095C172.516 401.095 172.993 400.796 173.978 399.334C174.515 398.529 175.082 397.275 175.858 395.396H176.813L176.395 402.408H159.655L159.625 401.572ZM179.319 390.383C178.633 388.712 178.305 388.294 177.559 388.055L176.992 387.876V387.1H185.854V387.876L185.048 388.085C184.421 388.264 184.123 388.562 184.123 389.279C184.123 389.696 184.272 390.204 184.511 390.86L186.988 397.663H187.137L189.524 390.86C189.792 390.144 189.912 389.637 189.912 389.219C189.912 388.562 189.613 388.234 188.987 388.085L188.181 387.876V387.1H193.642V387.876L193.075 388.055C192.299 388.324 191.971 388.771 191.255 390.711L186.689 402.408H184.183L179.319 390.383ZM192.955 394.679C192.955 389.547 196.745 386.712 200.654 386.712C204.712 386.712 207.248 388.742 207.338 394.083H197.58C197.67 398.917 199.49 400.229 202.534 400.229C204.354 400.229 205.756 399.692 206.86 399.125V400.11C205.816 401.244 203.578 402.796 200.624 402.796C195.492 402.736 192.955 399.692 192.955 394.679ZM197.58 392.949L202.623 392.68C202.623 389.129 202.146 387.817 200.385 387.817C198.893 387.817 197.7 389.249 197.58 392.949ZM215.096 388.98C215.931 388.085 217.632 386.623 219.601 386.623C220.855 386.623 221.899 387.637 221.899 388.921C221.899 390.204 220.884 391.218 219.601 391.218C218.676 391.218 217.841 390.651 217.513 389.846C217.334 389.517 216.946 389.428 216.677 389.428C216.14 389.428 215.513 389.816 215.125 390.174V399.722C215.125 401.095 215.245 401.244 216.14 401.393L217.125 401.602V402.408H208.621V401.602L209.396 401.393C210.381 401.125 210.5 400.975 210.5 399.722V390.562C210.5 389.308 210.351 389.219 209.516 388.652L208.531 387.996V387.399L214.738 386.683L215.066 386.921L215.006 388.95L215.096 388.98ZM222.794 401.602L223.57 401.393C224.555 401.125 224.674 400.975 224.674 399.722V390.562C224.674 389.308 224.525 389.219 223.689 388.652L222.705 387.996V387.399L228.911 386.683L229.239 386.892L229.18 388.771H229.299C230.85 387.667 232.79 386.683 234.938 386.683C237.445 386.683 238.788 387.966 238.788 390.621V399.692C238.788 400.975 238.907 401.125 239.862 401.363L240.638 401.572V402.378H232.432V401.572L233.148 401.393C234.043 401.154 234.133 401.065 234.133 399.692V391.785C234.133 389.995 233.476 389.428 232.104 389.428C231.059 389.428 230.015 389.667 229.359 389.816V399.722C229.359 401.125 229.448 401.184 230.343 401.423L231.059 401.602V402.408H222.854V401.602H222.794ZM241.205 394.769C241.205 389.129 245.203 386.712 249.171 386.712C253.438 386.712 257.168 389.279 257.168 394.62C257.168 400.259 253.23 402.736 249.171 402.736C244.905 402.736 241.205 400.17 241.205 394.769ZM252.215 394.918C252.215 388.98 251.081 387.846 249.052 387.846C247.202 387.846 246.098 389.189 246.098 394.262C246.098 400.289 247.083 401.602 249.231 401.602C250.992 401.602 252.215 400.558 252.215 394.918ZM259.705 398.678V388.831H257.855V388.115C260.152 387.22 261.913 385.519 262.748 383.162H264.419V387.1H268.328L267.94 388.831H264.419V398.379C264.419 399.842 264.867 400.438 266.329 400.438C267.045 400.438 267.91 400.289 268.447 400.17V401.005C267.731 401.662 266.269 402.736 263.792 402.736C261.137 402.736 259.705 401.572 259.705 398.678ZM269.044 394.679C269.044 389.547 272.834 386.712 276.742 386.712C280.8 386.712 283.337 388.742 283.426 394.083H273.699C273.788 398.917 275.609 400.229 278.652 400.229C280.472 400.229 281.875 399.692 282.979 399.125V400.11C281.934 401.244 279.696 402.796 276.742 402.796C271.58 402.736 269.044 399.692 269.044 394.679ZM273.669 392.949L278.712 392.68C278.712 389.129 278.234 387.817 276.474 387.817C274.982 387.817 273.788 389.249 273.669 392.949Z" fill="black"/>
<path d="M129.728 384.265C129.728 384.623 129.698 385.22 129.34 385.608C128.952 385.966 128.355 385.996 127.997 385.996H124.178C123.074 385.996 122.417 385.996 121.97 386.056C121.731 386.086 121.433 386.205 121.283 386.265C121.224 386.294 121.224 386.265 121.254 386.235L129.966 377.373C129.996 377.343 130.026 377.343 129.996 377.402C129.937 377.552 129.817 377.85 129.787 378.089C129.728 378.536 129.728 379.193 129.728 380.297V384.265ZM137.844 411.061C136.829 410.404 136.292 409.539 136.083 409.002C135.875 408.494 135.755 407.927 135.755 407.361C135.755 404.884 137.784 402.855 140.291 402.855C141.037 402.855 141.633 403.452 141.633 404.198C141.633 404.705 141.365 405.123 140.947 405.361C140.798 405.451 140.589 405.511 140.44 405.54C140.291 405.57 139.724 405.63 139.455 405.869C139.157 406.107 138.918 406.495 138.918 406.913C138.918 407.361 139.097 407.778 139.395 408.077C139.933 408.614 140.649 408.912 141.425 408.912C143.454 408.912 145.095 407.271 145.095 405.242C145.095 403.422 143.871 401.811 142.26 401.094C142.021 400.975 141.633 400.886 141.275 400.796C140.828 400.706 140.41 400.647 140.38 400.647C139.127 400.498 135.994 399.513 135.785 396.738C135.785 396.738 134.86 400.915 133.01 402.049C132.831 402.139 132.592 402.228 132.324 402.288C132.055 402.348 131.757 402.377 131.667 402.377C128.654 402.556 125.461 401.602 123.253 399.334C123.253 399.334 121.761 398.111 120.985 394.679C120.806 393.844 120.448 392.352 120.239 390.949C120.15 390.442 120.12 390.054 120.09 389.696C120.09 388.234 120.985 387.249 122.119 387.1C122.149 387.1 122.238 387.1 122.298 387.1C122.984 387.1 128.206 387.1 128.206 387.1C129.25 387.1 129.847 386.831 130.235 386.473C130.742 385.996 130.862 385.31 130.862 384.504C130.862 384.504 130.862 379.073 130.862 378.387C130.862 378.357 130.862 378.238 130.862 378.208C131.011 377.104 131.995 376.179 133.458 376.179C133.458 376.179 133.905 376.179 134.174 376.179C134.472 376.179 134.83 376.209 135.158 376.239C135.397 376.269 135.606 376.328 135.964 376.418C137.784 376.865 138.172 378.715 138.172 378.715C138.172 378.715 141.604 379.312 143.334 379.611C144.975 379.909 149.033 380.177 149.809 384.265C151.629 393.993 150.525 403.422 150.436 403.422C149.153 412.612 141.514 412.165 141.514 412.165C139.873 412.165 138.65 411.627 137.844 411.061ZM144.707 391.516C143.722 391.427 142.887 391.815 142.588 392.561C142.529 392.71 142.469 392.889 142.499 392.978C142.529 393.068 142.588 393.098 142.648 393.127C143.006 393.306 143.603 393.396 144.468 393.486C145.333 393.575 145.93 393.635 146.318 393.575C146.378 393.575 146.437 393.545 146.497 393.456C146.557 393.366 146.527 393.187 146.527 393.038C146.408 392.202 145.691 391.636 144.707 391.516Z" fill="#00A82D"/>
<g clip-path="url(#clip2_1_911)">
<path d="M429.385 375H414.75V410L429.385 375Z" fill="#FA0C00"/>
<path d="M439.682 375H454.298V410L439.682 375Z" fill="#FA0C00"/>
<path d="M434.534 387.9L443.849 410H437.737L434.953 402.964H428.136L434.534 387.9Z" fill="#FA0C00"/>
<path d="M478.174 397.258L479.899 402.206C479.956 402.33 480.042 402.387 480.195 402.387H483.513C483.694 402.387 483.722 402.301 483.694 402.12L476.839 383.08C476.81 382.928 476.782 382.899 476.629 382.899H472.51C472.396 382.899 472.329 382.985 472.329 383.109C472.272 384.11 472.186 384.415 472.062 384.711L465.951 402.092C465.922 402.301 465.989 402.387 466.16 402.387H469.126C469.307 402.387 469.393 402.33 469.459 402.149L471.09 397.258H478.174ZM472.034 394.026C472.93 391.318 474.112 387.848 474.589 385.864H474.617C475.208 387.943 476.6 392.062 477.23 394.026H472.034Z" fill="#FA0C00"/>
<path d="M492.507 402.683C494.29 402.683 496.187 402.359 498.113 401.529C498.265 401.472 498.294 401.405 498.294 401.262C498.237 400.728 498.17 399.956 498.17 399.365V381.441C498.17 381.326 498.17 381.269 498.027 381.269H494.795C494.671 381.269 494.614 381.326 494.614 381.479V387.552C494.108 387.495 493.756 387.466 493.336 387.466C488.121 387.466 484.917 390.908 484.917 395.208C484.917 400.194 488.207 402.683 492.507 402.683ZM494.614 399.365C494.08 399.536 493.489 399.603 492.888 399.603C490.524 399.603 488.588 398.268 488.588 395.027C488.588 392.157 490.581 390.46 493.222 390.46C493.756 390.46 494.223 390.517 494.614 390.67V399.365Z" fill="#FA0C00"/>
<path d="M508.605 387.466C504.152 387.466 501.397 390.879 501.397 395.094C501.397 398.86 503.59 402.683 508.538 402.683C512.724 402.683 515.66 399.603 515.66 394.998C515.66 390.937 513.172 387.466 508.605 387.466ZM508.424 390.46C510.941 390.46 512.009 392.624 512.009 395.094C512.009 398.144 510.435 399.66 508.605 399.66C506.345 399.66 505.01 397.763 505.01 395.027C505.01 392.214 506.431 390.46 508.424 390.46Z" fill="#FA0C00"/>
<path d="M519.002 381.269C518.878 381.269 518.792 381.326 518.792 381.479V401.767C518.792 401.853 518.878 402.006 519.002 402.034C520.422 402.473 521.91 402.683 523.445 402.683C527.84 402.683 532.111 399.956 532.111 394.464C532.111 390.488 529.384 387.466 525.113 387.466C524.131 387.466 523.216 387.619 522.415 387.886L522.377 381.507C522.377 381.298 522.32 381.269 522.11 381.269H519.002ZM528.46 394.827C528.46 398.116 526.21 399.66 523.778 399.66C523.273 399.66 522.825 399.632 522.415 399.508V390.851C522.882 390.67 523.445 390.517 524.484 390.517C526.829 390.517 528.46 392.004 528.46 394.827Z" fill="#FA0C00"/>
<path d="M544.173 395.894C545.622 395.894 546.814 395.866 547.224 395.77C547.377 395.742 547.434 395.685 547.463 395.561C547.548 395.237 547.587 394.56 547.587 393.73C547.587 390.908 545.889 387.466 541.504 387.466C537.023 387.466 534.534 391.118 534.534 395.237C534.534 398.888 536.46 402.683 541.856 402.683C543.878 402.683 545.184 402.359 546.309 401.825C546.423 401.767 546.481 401.672 546.481 401.501V399.031C546.481 398.888 546.395 398.86 546.309 398.917C545.184 399.393 543.964 399.632 542.629 399.632C539.606 399.632 538.234 397.963 538.148 395.894H544.173ZM538.148 393.339C538.386 391.89 539.301 390.317 541.351 390.317C543.611 390.317 544.202 392.214 544.202 393.072C544.202 393.101 544.202 393.225 544.202 393.311C544.078 393.339 543.697 393.339 542.572 393.339H538.148Z" fill="#FA0C00"/>
</g>
<g clip-path="url(#clip3_1_911)">
<path d="M731.713 381.772H723.837C723.298 381.772 722.84 382.163 722.756 382.695L719.571 402.889C719.508 403.288 719.816 403.647 720.22 403.647H723.98C724.519 403.647 724.977 403.255 725.061 402.722L725.92 397.276C726.003 396.742 726.463 396.351 727.001 396.351H729.494C734.681 396.351 737.675 393.841 738.457 388.866C738.809 386.69 738.472 384.98 737.453 383.782C736.334 382.467 734.348 381.772 731.713 381.772ZM732.621 389.147C732.19 391.973 730.031 391.973 727.944 391.973H726.755L727.589 386.695C727.639 386.377 727.915 386.142 728.237 386.142H728.782C730.204 386.142 731.546 386.142 732.239 386.952C732.652 387.436 732.779 388.154 732.621 389.147Z" fill="#253B80"/>
<path d="M755.253 389.056H751.482C751.161 389.056 750.883 389.291 750.834 389.61L750.667 390.665L750.403 390.282C749.587 389.098 747.766 388.701 745.949 388.701C741.782 388.701 738.222 391.858 737.529 396.285C737.169 398.494 737.681 400.606 738.934 402.079C740.083 403.433 741.727 403.997 743.684 403.997C747.042 403.997 748.904 401.838 748.904 401.838L748.736 402.886C748.672 403.287 748.981 403.646 749.383 403.646H752.78C753.32 403.646 753.776 403.254 753.861 402.721L755.899 389.814C755.964 389.417 755.656 389.056 755.253 389.056ZM749.997 396.396C749.633 398.55 747.923 399.997 745.742 399.997C744.647 399.997 743.771 399.645 743.209 398.98C742.652 398.319 742.44 397.378 742.618 396.33C742.957 394.194 744.696 392.701 746.844 392.701C747.915 392.701 748.785 393.056 749.359 393.728C749.933 394.406 750.161 395.353 749.997 396.396Z" fill="#253B80"/>
<path d="M775.338 389.056H771.548C771.187 389.056 770.847 389.236 770.642 389.536L765.415 397.235L763.2 389.837C763.06 389.374 762.633 389.056 762.15 389.056H758.426C757.973 389.056 757.659 389.498 757.803 389.924L761.977 402.174L758.052 407.714C757.744 408.15 758.055 408.75 758.588 408.75H762.373C762.732 408.75 763.068 408.575 763.272 408.281L775.877 390.087C776.178 389.651 775.869 389.056 775.338 389.056Z" fill="#253B80"/>
<path d="M787.885 381.772H780.008C779.471 381.772 779.012 382.163 778.928 382.695L775.743 402.889C775.68 403.288 775.988 403.647 776.39 403.647H780.432C780.807 403.647 781.129 403.373 781.188 403L782.091 397.276C782.174 396.742 782.634 396.351 783.172 396.351H785.663C790.852 396.351 793.845 393.841 794.628 388.866C794.981 386.69 794.642 384.98 793.623 383.782C792.505 382.467 790.521 381.772 787.885 381.772ZM788.793 389.147C788.364 391.973 786.205 391.973 784.116 391.973H782.929L783.763 386.695C783.813 386.377 784.087 386.142 784.411 386.142H784.955C786.376 386.142 787.719 386.142 788.412 386.952C788.825 387.436 788.951 388.154 788.793 389.147Z" fill="#179BD7"/>
<path d="M811.424 389.056H807.655C807.332 389.056 807.056 389.291 807.008 389.61L806.841 390.665L806.576 390.282C805.76 389.098 803.94 388.701 802.123 388.701C797.956 388.701 794.398 391.858 793.705 396.285C793.345 398.494 793.855 400.606 795.108 402.079C796.26 403.433 797.902 403.997 799.858 403.997C803.216 403.997 805.078 401.838 805.078 401.838L804.91 402.886C804.847 403.287 805.155 403.646 805.559 403.646H808.955C809.493 403.646 809.951 403.254 810.035 402.721L812.075 389.814C812.137 389.417 811.828 389.056 811.424 389.056ZM806.167 396.396C805.806 398.55 804.094 399.997 801.913 399.997C800.82 399.997 799.942 399.645 799.38 398.98C798.823 398.319 798.613 397.378 798.788 396.33C799.13 394.194 800.867 392.701 803.015 392.701C804.085 392.701 804.956 393.056 805.529 393.728C806.106 394.406 806.334 395.353 806.167 396.396Z" fill="#179BD7"/>
<path d="M815.87 382.325L812.638 402.889C812.574 403.288 812.883 403.647 813.285 403.647H816.534C817.074 403.647 817.533 403.255 817.616 402.722L820.803 382.529C820.866 382.131 820.558 381.77 820.156 381.77H816.517C816.196 381.772 815.919 382.006 815.87 382.325Z" fill="#179BD7"/>
<path d="M686.867 407.571L687.469 403.746L686.128 403.715H679.722L684.173 375.488C684.187 375.403 684.232 375.323 684.298 375.267C684.363 375.21 684.447 375.179 684.535 375.179H695.336C698.922 375.179 701.397 375.925 702.689 377.398C703.294 378.089 703.68 378.811 703.867 379.606C704.062 380.439 704.066 381.435 703.875 382.65L703.861 382.739V383.517L704.467 383.86C704.977 384.131 705.382 384.441 705.693 384.796C706.211 385.386 706.546 386.137 706.688 387.027C706.834 387.943 706.786 389.032 706.546 390.265C706.27 391.684 705.823 392.919 705.22 393.93C704.665 394.862 703.958 395.635 703.118 396.234C702.317 396.802 701.364 397.234 700.288 397.511C699.244 397.782 698.055 397.919 696.75 397.919H695.91C695.309 397.919 694.725 398.136 694.266 398.524C693.807 398.92 693.503 399.461 693.41 400.053L693.346 400.397L692.282 407.139L692.234 407.387C692.221 407.465 692.199 407.505 692.167 407.531C692.138 407.555 692.097 407.571 692.057 407.571H686.867Z" fill="#253B80"/>
<path d="M705.04 382.829C705.008 383.035 704.971 383.245 704.93 383.462C703.505 390.775 698.632 393.302 692.408 393.302H689.239C688.478 393.302 687.837 393.854 687.718 394.605L686.095 404.895L685.636 407.812C685.559 408.305 685.939 408.749 686.436 408.749H692.057C692.722 408.749 693.288 408.266 693.393 407.609L693.448 407.324L694.506 400.608L694.574 400.24C694.678 399.581 695.244 399.097 695.91 399.097H696.75C702.196 399.097 706.459 396.886 707.705 390.488C708.225 387.816 707.956 385.584 706.579 384.015C706.162 383.541 705.645 383.149 705.04 382.829Z" fill="#179BD7"/>
<path d="M703.55 382.235C703.332 382.171 703.108 382.114 702.877 382.062C702.646 382.011 702.409 381.966 702.165 381.927C701.31 381.789 700.374 381.723 699.371 381.723H690.905C690.697 381.723 690.499 381.77 690.321 381.856C689.931 382.043 689.641 382.413 689.571 382.866L687.77 394.272L687.718 394.605C687.836 393.854 688.478 393.302 689.239 393.302H692.408C698.632 393.302 703.505 390.774 704.929 383.462C704.972 383.246 705.008 383.035 705.04 382.829C704.68 382.638 704.289 382.474 703.869 382.335C703.765 382.3 703.658 382.267 703.55 382.235Z" fill="#222D65"/>
<path d="M689.571 382.866C689.641 382.413 689.931 382.043 690.321 381.857C690.5 381.772 690.697 381.724 690.905 381.724H699.371C700.374 381.724 701.31 381.79 702.165 381.928C702.409 381.967 702.646 382.012 702.878 382.063C703.108 382.115 703.332 382.172 703.55 382.236C703.658 382.268 703.765 382.301 703.87 382.335C704.29 382.474 704.681 382.639 705.041 382.829C705.465 380.126 705.038 378.286 703.577 376.62C701.966 374.785 699.058 374 695.337 374H684.536C683.776 374 683.128 374.553 683.01 375.305L678.512 403.822C678.423 404.386 678.858 404.895 679.427 404.895H686.095L687.77 394.272L689.571 382.866Z" fill="#253B80"/>
</g>
<g clip-path="url(#clip4_1_911)">
<path fill-rule="evenodd" clip-rule="evenodd" d="M1020.18 406.807C1013.82 411.497 1004.6 414 996.656 414C985.521 414 975.497 409.881 967.913 403.032C967.317 402.493 967.851 401.759 968.566 402.178C976.751 406.94 986.87 409.805 997.324 409.805C1004.37 409.805 1012.13 408.347 1019.26 405.32C1020.34 404.862 1021.24 406.025 1020.18 406.807Z" fill="#FF9900"/>
<path fill-rule="evenodd" clip-rule="evenodd" d="M1022.83 403.78C1022.02 402.741 1017.45 403.289 1015.4 403.532C1014.78 403.608 1014.68 403.065 1015.25 402.674C1018.88 400.114 1024.85 400.853 1025.55 401.711C1026.24 402.574 1025.37 408.556 1021.95 411.412C1021.42 411.85 1020.92 411.617 1021.16 411.035C1021.92 409.119 1023.65 404.824 1022.83 403.78Z" fill="#FF9900"/>
<path fill-rule="evenodd" clip-rule="evenodd" d="M1015.55 384.604V382.115C1015.55 381.739 1015.83 381.486 1016.18 381.486H1027.32C1027.67 381.486 1027.96 381.744 1027.96 382.115V384.246C1027.96 384.604 1027.65 385.071 1027.12 385.81L1021.35 394.051C1023.49 393.999 1025.76 394.318 1027.7 395.415C1028.14 395.662 1028.26 396.025 1028.29 396.382V399.037C1028.29 399.4 1027.89 399.824 1027.47 399.604C1024.05 397.807 1019.49 397.612 1015.7 399.624C1015.32 399.833 1014.91 399.414 1014.91 399.052V396.53C1014.91 396.125 1014.92 395.434 1015.32 394.819L1022.01 385.228H1016.19C1015.83 385.228 1015.55 384.975 1015.55 384.604Z" fill="black"/>
<path fill-rule="evenodd" clip-rule="evenodd" d="M974.911 400.129H971.522C971.198 400.105 970.94 399.862 970.917 399.552V382.158C970.917 381.81 971.207 381.534 971.57 381.534H974.73C975.059 381.548 975.321 381.801 975.345 382.115V384.389H975.407C976.231 382.192 977.781 381.167 979.868 381.167C981.99 381.167 983.315 382.192 984.268 384.389C985.088 382.192 986.952 381.167 988.949 381.167C990.369 381.167 991.923 381.753 992.872 383.069C993.945 384.532 993.725 386.658 993.725 388.522L993.72 399.5C993.72 399.848 993.43 400.129 993.067 400.129H989.683C989.345 400.105 989.073 399.833 989.073 399.5V390.281C989.073 389.547 989.14 387.716 988.978 387.02C988.725 385.853 987.967 385.524 986.985 385.524C986.165 385.524 985.307 386.072 984.959 386.949C984.611 387.826 984.645 389.294 984.645 390.281V399.5C984.645 399.848 984.354 400.129 983.992 400.129H980.607C980.264 400.105 979.997 399.833 979.997 399.5L979.992 390.281C979.992 388.341 980.312 385.486 977.905 385.486C975.469 385.486 975.564 388.269 975.564 390.281V399.5C975.564 399.848 975.273 400.129 974.911 400.129Z" fill="black"/>
<path fill-rule="evenodd" clip-rule="evenodd" d="M1037.55 381.167C1042.58 381.167 1045.3 385.486 1045.3 390.977C1045.3 396.282 1042.29 400.491 1037.55 400.491C1032.61 400.491 1029.92 396.172 1029.92 390.791C1029.92 385.376 1032.65 381.167 1037.55 381.167ZM1037.58 384.718C1035.08 384.718 1034.92 388.122 1034.92 390.243C1034.92 392.369 1034.89 396.907 1037.55 396.907C1040.18 396.907 1040.3 393.246 1040.3 391.015C1040.3 389.547 1040.24 387.793 1039.8 386.401C1039.41 385.19 1038.66 384.718 1037.58 384.718Z" fill="black"/>
<path fill-rule="evenodd" clip-rule="evenodd" d="M1051.82 400.129H1048.45C1048.11 400.105 1047.84 399.833 1047.84 399.5L1047.83 382.101C1047.86 381.782 1048.14 381.534 1048.49 381.534H1051.63C1051.92 381.548 1052.17 381.748 1052.23 382.02V384.68H1052.29C1053.24 382.301 1054.57 381.167 1056.91 381.167C1058.43 381.167 1059.92 381.715 1060.87 383.217C1061.76 384.608 1061.76 386.949 1061.76 388.632V399.581C1061.72 399.886 1061.44 400.129 1061.1 400.129H1057.7C1057.39 400.105 1057.14 399.876 1057.1 399.581V390.133C1057.1 388.231 1057.32 385.447 1054.98 385.447C1054.16 385.447 1053.4 386 1053.02 386.839C1052.55 387.902 1052.48 388.96 1052.48 390.133V399.5C1052.48 399.848 1052.18 400.129 1051.82 400.129Z" fill="black"/>
<path fill-rule="evenodd" clip-rule="evenodd" d="M1006.67 391.82C1006.67 393.141 1006.7 394.242 1006.03 395.415C1005.49 396.368 1004.64 396.954 1003.69 396.954C1002.39 396.954 1001.62 395.963 1001.62 394.499C1001.62 391.611 1004.21 391.086 1006.67 391.086V391.82ZM1010.08 400.081C1009.86 400.281 1009.54 400.296 1009.28 400.162C1008.16 399.228 1007.95 398.794 1007.34 397.903C1005.48 399.8 1004.16 400.367 1001.75 400.367C998.897 400.367 996.681 398.608 996.681 395.086C996.681 392.335 998.168 390.462 1000.29 389.547C1002.13 388.736 1004.7 388.593 1006.67 388.369V387.931C1006.67 387.125 1006.73 386.172 1006.25 385.476C1005.84 384.852 1005.05 384.594 1004.35 384.594C1003.06 384.594 1001.91 385.257 1001.63 386.629C1001.57 386.935 1001.35 387.235 1001.04 387.249L997.753 386.896C997.477 386.834 997.167 386.61 997.248 386.186C998.001 382.201 1001.6 381 1004.83 381C1006.48 381 1008.63 381.439 1009.93 382.687C1011.58 384.227 1011.42 386.282 1011.42 388.517V393.799C1011.42 395.386 1012.08 396.082 1012.7 396.94C1012.92 397.245 1012.96 397.612 1012.69 397.841C1012 398.418 1010.77 399.49 1010.09 400.091L1010.08 400.081Z" fill="black"/>
<path fill-rule="evenodd" clip-rule="evenodd" d="M962.236 391.82C962.236 393.141 962.27 394.242 961.602 395.415C961.064 396.368 960.21 396.954 959.257 396.954C957.956 396.954 957.198 395.963 957.198 394.499C957.198 391.611 959.786 391.086 962.236 391.086V391.82ZM965.654 400.081C965.43 400.281 965.106 400.296 964.853 400.162C963.728 399.228 963.528 398.794 962.908 397.903C961.049 399.8 959.734 400.367 957.322 400.367C954.471 400.367 952.25 398.608 952.25 395.086C952.25 392.335 953.742 390.462 955.863 389.547C957.703 388.736 960.272 388.593 962.236 388.369V387.931C962.236 387.125 962.298 386.172 961.826 385.476C961.412 384.852 960.62 384.594 959.924 384.594C958.633 384.594 957.479 385.257 957.198 386.629C957.141 386.935 956.917 387.235 956.612 387.249L953.323 386.896C953.046 386.834 952.741 386.61 952.817 386.186C953.575 382.201 957.174 381 960.396 381C962.046 381 964.2 381.439 965.501 382.687C967.151 384.227 966.993 386.282 966.993 388.517V393.799C966.993 395.386 967.651 396.082 968.271 396.94C968.49 397.245 968.538 397.612 968.261 397.841C967.57 398.418 966.34 399.49 965.664 400.091L965.654 400.081Z" fill="black"/>
</g>
<path fill-rule="evenodd" clip-rule="evenodd" d="M1315.96 400.98C1316.03 401.85 1316.73 402.957 1317.93 402.957H1318.64C1318.91 402.957 1319.14 402.733 1319.14 402.459V386.953H1319.13C1319.12 386.692 1318.9 386.483 1318.64 386.483H1316.45C1316.19 386.483 1315.97 386.692 1315.96 386.953H1315.96V388.213C1314.62 386.563 1312.51 385.879 1310.39 385.879C1305.58 385.879 1301.68 389.781 1301.68 394.595C1301.68 399.41 1305.58 403.312 1310.39 403.312C1312.51 403.312 1314.81 402.491 1315.96 400.978V400.98ZM1310.4 400.262C1307.34 400.262 1304.86 397.725 1304.86 394.595C1304.86 391.466 1307.34 388.929 1310.4 388.929C1313.46 388.929 1315.94 391.466 1315.94 394.595C1315.94 397.725 1313.46 400.262 1310.4 400.262Z" fill="#0D0E10"/>
<path fill-rule="evenodd" clip-rule="evenodd" d="M1298.92 393.49C1298.92 388.967 1296.07 385.916 1291.52 385.916C1289.35 385.916 1287.57 387.172 1286.94 388.251C1286.81 387.407 1286.36 386.521 1284.97 386.521H1284.27C1283.99 386.521 1283.77 386.745 1283.77 387.018V401.019C1283.77 401.02 1283.77 401.021 1283.77 401.021V402.525H1283.77C1283.79 402.786 1284 402.995 1284.27 402.995H1286.45C1286.48 402.995 1286.52 402.991 1286.55 402.985C1286.56 402.983 1286.58 402.977 1286.59 402.973C1286.61 402.968 1286.62 402.964 1286.64 402.958C1286.66 402.95 1286.68 402.939 1286.69 402.929C1286.7 402.923 1286.71 402.919 1286.72 402.914C1286.74 402.9 1286.76 402.883 1286.78 402.865C1286.79 402.862 1286.79 402.86 1286.79 402.857C1286.81 402.836 1286.83 402.813 1286.85 402.789C1286.91 402.714 1286.94 402.623 1286.94 402.525H1286.95V393.366C1286.95 390.937 1288.92 388.967 1291.34 388.967C1293.77 388.967 1295.74 390.937 1295.74 393.366L1295.74 401.022L1295.74 401.019C1295.74 401.026 1295.74 401.033 1295.74 401.04V402.525H1295.74C1295.76 402.786 1295.97 402.995 1296.24 402.995H1298.42C1298.46 402.995 1298.49 402.991 1298.52 402.985C1298.53 402.983 1298.55 402.978 1298.56 402.974C1298.58 402.969 1298.6 402.965 1298.61 402.958C1298.63 402.95 1298.65 402.94 1298.66 402.93C1298.67 402.925 1298.68 402.92 1298.69 402.914C1298.71 402.9 1298.73 402.884 1298.75 402.869C1298.76 402.864 1298.76 402.861 1298.77 402.857C1298.79 402.837 1298.8 402.815 1298.82 402.793C1298.82 402.791 1298.82 402.79 1298.83 402.788C1298.88 402.713 1298.91 402.624 1298.92 402.526C1298.92 402.526 1298.92 402.525 1298.92 402.525H1298.92L1298.92 393.49Z" fill="#0D0E10"/>
<path fill-rule="evenodd" clip-rule="evenodd" d="M1276.17 400.98C1276.24 401.85 1276.94 402.957 1278.14 402.957H1278.85C1279.12 402.957 1279.35 402.733 1279.35 402.459V386.953H1279.34C1279.33 386.692 1279.11 386.483 1278.85 386.483H1276.67C1276.4 386.483 1276.19 386.692 1276.17 386.953H1276.17V388.213C1274.83 386.563 1272.72 385.879 1270.6 385.879C1265.79 385.879 1261.89 389.781 1261.89 394.595C1261.89 399.41 1265.79 403.312 1270.6 403.312C1272.72 403.312 1275.03 402.491 1276.17 400.978L1276.17 400.98ZM1270.61 400.262C1267.55 400.262 1265.07 397.725 1265.07 394.595C1265.07 391.466 1267.55 388.929 1270.61 388.929C1273.67 388.929 1276.15 391.466 1276.15 394.595C1276.15 397.725 1273.67 400.262 1270.61 400.262Z" fill="#0D0E10"/>
<path fill-rule="evenodd" clip-rule="evenodd" d="M1248.97 398.76C1250.43 399.771 1252.02 400.262 1253.55 400.262C1255.01 400.262 1256.52 399.506 1256.52 398.19C1256.52 396.433 1253.24 396.159 1251.17 395.458C1249.11 394.756 1247.33 393.306 1247.33 390.957C1247.33 387.363 1250.53 385.878 1253.52 385.878C1255.41 385.878 1257.36 386.503 1258.63 387.397C1259.07 387.728 1258.8 388.108 1258.8 388.108L1257.59 389.835C1257.46 390.029 1257.22 390.197 1256.88 389.987C1256.54 389.776 1255.34 388.929 1253.52 388.929C1251.7 388.929 1250.6 389.771 1250.6 390.815C1250.6 392.067 1252.03 392.461 1253.7 392.887C1256.61 393.673 1259.78 394.617 1259.78 398.19C1259.78 401.356 1256.83 403.313 1253.55 403.313C1251.08 403.313 1248.96 402.606 1247.19 401.306C1246.83 400.937 1247.08 400.594 1247.08 400.594L1248.29 398.875C1248.53 398.554 1248.84 398.666 1248.97 398.76Z" fill="#0D0E10"/>
<path fill-rule="evenodd" clip-rule="evenodd" d="M1240.58 400.98C1240.65 401.85 1241.35 402.957 1242.55 402.957H1243.26C1243.53 402.957 1243.75 402.733 1243.75 402.459V386.953H1243.75C1243.74 386.692 1243.52 386.483 1243.26 386.483H1241.07C1240.81 386.483 1240.59 386.692 1240.58 386.953H1240.58V388.213C1239.24 386.563 1237.13 385.879 1235.01 385.879C1230.2 385.879 1226.3 389.781 1226.3 394.595C1226.3 399.41 1230.2 403.312 1235.01 403.312C1237.13 403.312 1239.43 402.491 1240.57 400.978L1240.58 400.98ZM1235.02 400.262C1231.96 400.262 1229.48 397.725 1229.48 394.595C1229.48 391.466 1231.96 388.929 1235.02 388.929C1238.08 388.929 1240.56 391.466 1240.56 394.595C1240.56 397.725 1238.08 400.262 1235.02 400.262Z" fill="#0D0E10"/>
<path fill-rule="evenodd" clip-rule="evenodd" d="M1214.09 395.188C1210.85 395.188 1208.23 397.812 1208.23 401.05C1208.23 404.287 1210.85 406.911 1214.09 406.911C1217.33 406.911 1219.95 404.287 1219.95 401.05C1219.95 397.812 1217.33 395.188 1214.09 395.188ZM1198.86 395.189C1195.62 395.189 1193 397.812 1193 401.05C1193 404.287 1195.62 406.911 1198.86 406.911C1202.1 406.911 1204.72 404.287 1204.72 401.05C1204.72 397.812 1202.1 395.189 1198.86 395.189ZM1212.34 387.861C1212.34 391.099 1209.71 393.723 1206.48 393.723C1203.24 393.723 1200.61 391.099 1200.61 387.861C1200.61 384.624 1203.24 382 1206.48 382C1209.71 382 1212.34 384.624 1212.34 387.861Z" fill="#F06A6A"/>
<defs>
<clipPath id="clip0_1_911">
<rect width="140" height="48" fill="white" transform="translate(120 227)"/>
</clipPath>
<clipPath id="clip1_1_911">
<rect width="72" height="48" fill="white" transform="translate(665 227)"/>
</clipPath>
<clipPath id="clip2_1_911">
<rect width="133" height="48" fill="white" transform="translate(414.75 369)"/>
</clipPath>
<clipPath id="clip3_1_911">
<rect width="143" height="48" fill="white" transform="translate(678.5 369)"/>
</clipPath>
<clipPath id="clip4_1_911">
<rect width="110" height="48" fill="white" transform="translate(952.25 369)"/>
</clipPath>
</defs>
</svg>
